<svg id="visual" viewBox="0 0 960 540" width="960" height="540" xmlns="http://www.w3.org/2000/svg" xmlns:xlink="http://www.w3.org/1999/xlink" version="1.1"><rect x="0" y="0" width="960" height="540" fill="#f40082"></rect><path d="M657 0L621 15C585 30 513 60 511.3 90C509.7 120 578.3 150 553 180C527.7 210 408.3 240 394.7 270C381 300 473 330 484.2 360C495.3 390 425.7 420 423.5 450C421.3 480 486.7 510 519.3 525L552 540L0 540L0 525C0 510 0 480 0 450C0 420 0 390 0 360C0 330 0 300 0 270C0 240 0 210 0 180C0 150 0 120 0 90C0 60 0 30 0 15L0 0Z" fill="#f3e162" stroke-linecap="round" stroke-linejoin="miter"></path></svg>